<svg width="201" height="44" fill="none" xmlns="http://www.w3.org/2000/svg"><path d="m0 18.93 7.849 8.634 2.01 2.216 6.753-7.487.026 8.782h3.183l-.026-18.134-2.734 3.286-7.099 8.734-7.224-8.742L0 12.94v5.99Zm0 16.389V24.322l4.942 5.445L0 35.319Zm75.706-20.944a9.612 9.612 0 0 0-.795-.475c-1.484-.81-3.149-1.216-4.995-1.216s-3.512.405-4.995 1.216a8.795 8.795 0 0 0-3.495 3.339c-.845 1.415-1.268 3.002-1.268 4.762 0 1.76.423 3.357 1.268 4.789.081.135.165.268.252.398l2.5-2.284c-.42-.882-.63-1.85-.63-2.903 0-1.207.277-2.295.829-3.26a5.783 5.783 0 0 1 2.278-2.278c.966-.553 2.053-.829 3.26-.829 1.209 0 2.296.276 3.262.829.05.027.1.056.15.085l2.379-2.173Zm-.161 4.529 2.484-2.27c.132.187.257.38.376.58.846 1.414 1.268 3.01 1.268 4.787 0 1.778-.422 3.374-1.268 4.789-.845 1.415-2.01 2.527-3.494 3.338-1.484.794-3.149 1.191-4.995 1.191s-3.512-.397-4.995-1.19a9.757 9.757 0 0 1-.989-.619l2.368-2.162c.115.076.233.149.355.218.966.535 2.053.802 3.26.802 1.209 0 2.296-.267 3.262-.802a6.015 6.015 0 0 0 2.278-2.278c.552-.983.828-2.079.828-3.287 0-1.14-.246-2.172-.738-3.097Zm29.839 8.647 2.012 2.215 6.755-7.48.026 8.774h3.183l-.025-18.117-2.735 3.283-7.101 8.726-7.226-8.734-2.739-3.275v5.985l7.85 8.623ZM38.952 16.178l3.364-3.235V31.06h-3.364V16.178Zm97.478 0 3.365-3.235V31.06h-3.365V16.178Z" fill="#E3E3E3"/><rect x="156.134" width="44" height="44" rx="22" fill="#2C3136"/><path d="M172.053 27.793a1.323 1.323 0 1 1-2.647 0V18.76a1.323 1.323 0 1 1 2.647 0v9.033Zm.043-13.068a1.28 1.28 0 0 1-1.281 1.28h-.192a1.28 1.28 0 1 1 0-2.562h.192c.707 0 1.281.574 1.281 1.282Zm9.788 14.626c-1.21 0-2.299-.263-3.267-.79a5.9 5.9 0 0 1-2.285-2.178c-.541-.925-.812-1.964-.812-3.117s.271-2.192.812-3.118a5.9 5.9 0 0 1 2.285-2.178c.968-.526 2.057-.79 3.267-.79 1.224 0 2.32.264 3.288.79a5.6 5.6 0 0 1 2.263 2.157c.556.925.833 1.964.833 3.117 0 1.168-.277 2.214-.833 3.14a5.746 5.746 0 0 1-2.263 2.177c-.968.527-2.064.79-3.288.79Zm.021-2.391c1.082 0 1.964-.342 2.648-1.025.683-.683 1.025-1.573 1.025-2.67 0-1.11-.342-2-1.025-2.668-.684-.67-1.573-1.004-2.669-1.004-1.082 0-1.972.335-2.67 1.004-.683.669-1.024 1.551-1.024 2.647 0 1.11.348 2.008 1.046 2.69.697.684 1.587 1.026 2.669 1.026Z" fill="#fff"/></svg>