<svg width="40" height="40" fill="none" xmlns="http://www.w3.org/2000/svg"><path d="M0 20C0 8.954 8.954 0 20 0s20 8.954 20 20-8.954 20-20 20S0 31.046 0 20Z" fill="#0077B5"/><path fill-rule="evenodd" clip-rule="evenodd" d="M14.432 12.352c0 1.308-.984 2.354-2.564 2.354h-.03c-1.521 0-2.505-1.046-2.505-2.354 0-1.335 1.014-2.352 2.565-2.352 1.55 0 2.505 1.017 2.534 2.352Zm-.298 4.213v13.618H9.6V16.565h4.533Zm16.345 13.618v-7.808c0-4.183-2.235-6.13-5.218-6.13-2.406 0-3.484 1.322-4.085 2.25v-1.93h-4.533c.06 1.278 0 13.618 0 13.618h4.532v-7.605c0-.407.03-.813.15-1.104.327-.814 1.073-1.655 2.325-1.655 1.641 0 2.297 1.248 2.297 3.078v7.286h4.532Z" fill="#fff"/></svg>