<svg width="40" height="40" fill="none" xmlns="http://www.w3.org/2000/svg"><path d="M13.02 26.471V16.153h-2.385V13.51h5.676v12.959H13.02v.003Zm15.662-9.617c0 1.129-.608 2.125-1.628 2.68 1.423.593 2.31 1.83 2.31 3.272 0 2.33-2.07 3.808-5.304 3.808-3.233 0-5.304-1.462-5.304-3.754 0-1.477.962-2.737 2.458-3.326-1.09-.61-1.795-1.645-1.795-2.773 0-2.07 1.81-3.385 4.622-3.385 2.846.004 4.641 1.353 4.641 3.478Zm-6.824 5.677c0 1.09.775 1.702 2.198 1.702 1.424 0 2.218-.593 2.218-1.702 0-1.074-.794-1.683-2.218-1.683-1.423 0-2.198.613-2.198 1.683Zm.333-5.49c0 .922.667 1.442 1.87 1.442 1.201 0 1.868-.516 1.868-1.443 0-.961-.667-1.496-1.869-1.496s-1.869.535-1.869 1.496Z" fill="#464A57"/><path d="M34.84 14.975c.546 1.613.825 3.303.825 5.025 0 8.64-7.026 15.665-15.665 15.665-8.64 0-15.665-7.026-15.665-15.665C4.335 11.36 11.36 4.335 20 4.335c1.722 0 3.412.279 5.025.826V1.675A18.853 18.853 0 0 0 20 1C9.523 1 1 9.523 1 20s8.523 19 19 19 19-8.523 19-19c0-1.71-.225-3.397-.675-5.025H34.84Z" fill="#464A57"/><path d="M33.893 6.095v-3.64h-2.621v3.64H27.65v2.621h3.622v3.645h2.621V8.716h3.641v-2.62h-3.64Z" fill="#464A57"/></svg>