<svg width="42" height="40" fill="none" xmlns="http://www.w3.org/2000/svg"><g clip-path="url(#a)"><path fill-rule="evenodd" clip-rule="evenodd" d="M31.755 13.017c-2.39-4.04-6.758-6.51-11.751-6.51C12.444 6.507 6.55 12.353 6.55 20s5.894 14.081 13.453 14.081c4.993 0 9.36-2.94 11.751-6.98h6.852C35.775 34.64 28.45 40 20.004 40 9.085 40 0 31.046 0 20S9.085 0 20.004 0c8.446 0 15.771 5.477 18.603 13.017h-6.852ZM42 17.647l-6.903 4.941h-8.66c-1.008 2.616-3.533 4.47-6.49 4.47-3.844 0-6.96-3.133-6.96-7 0-3.865 3.116-7 6.96-7 3.002 0 5.56 1.911 6.537 4.59H42Z" fill="#464A57"/></g><defs><clipPath id="a"><path fill="#fff" d="M0 0h42v40H0z"/></clipPath></defs></svg>