<svg width="72" height="72" fill="none" xmlns="http://www.w3.org/2000/svg"><path fill="#fff" d="M0 0h72v72H0z"/><path d="M42.75 30.375h9m-31.5 0h9m-4.5-4.5v9m23.63-19.198-24.754.073A14.63 14.63 0 0 0 9.221 27.835h.002L4.621 51.506a7.876 7.876 0 0 0 13.324 6.937h0L30.105 45l18.275-.073a14.625 14.625 0 0 0 0-29.25v0Z" stroke="#5B35AB" stroke-width="3" stroke-linecap="square"/><path d="m62.783 27.762 4.599 23.744a7.876 7.876 0 0 1-13.325 6.937h0l-12.15-13.49" stroke="#5B35AB" stroke-width="3" stroke-linecap="square"/></svg>