<svg width="72" height="72" fill="none" xmlns="http://www.w3.org/2000/svg"><path d="M36 63c14.912 0 27-12.088 27-27S50.912 9 36 9 9 21.088 9 36s12.088 27 27 27Z" stroke="#5B35AB" stroke-width="3" stroke-linecap="round" stroke-linejoin="round"/><path d="m13.946 51.58 3.285-1.983a2.25 2.25 0 0 0 1.087-1.914l.057-10.161a2.25 2.25 0 0 1 .353-1.198l5.58-8.746a2.25 2.25 0 0 1 3.218-.612l5.528 4.005a2.25 2.25 0 0 0 1.622.408l8.854-1.2a2.25 2.25 0 0 0 1.399-.756l6.232-7.2a2.25 2.25 0 0 0 .546-1.581l-.329-6.835m1.235 43.479-3.019-3.024a2.251 2.251 0 0 0-1.021-.587l-6.035-1.584a2.25 2.25 0 0 1-1.655-2.504l.67-4.555a2.25 2.25 0 0 1 1.363-1.75l8.564-3.56a2.25 2.25 0 0 1 2.382.417l7.002 6.404" stroke="#5B35AB" stroke-width="3" stroke-linecap="round" stroke-linejoin="round"/></svg>