<svg width="72" height="72" fill="none" xmlns="http://www.w3.org/2000/svg"><path d="M51.75 51.75H19.636L11.791 8.598A2.25 2.25 0 0 0 9.576 6.75H4.5M22.5 63a5.625 5.625 0 1 0 0-11.25 5.625 5.625 0 0 0 0 11.25Zm29.25 0a5.625 5.625 0 1 0 0-11.25 5.625 5.625 0 0 0 0 11.25Z" stroke="#5B35AB" stroke-width="3" stroke-linecap="round" stroke-linejoin="round"/><path d="M17.59 40.5h35.314a4.5 4.5 0 0 0 4.427-3.695L60.75 18H13.5" stroke="#5B35AB" stroke-width="3" stroke-linecap="round" stroke-linejoin="round"/></svg>